<?xml version="1.0" standalone="no"?>
<!DOCTYPE svg PUBLIC "-//W3C//DTD SVG 20010904//EN"
 "http://www.w3.org/TR/2001/REC-SVG-20010904/DTD/svg10.dtd">
<svg version="1.0" xmlns="http://www.w3.org/2000/svg"
 width="700.000000pt" height="700.000000pt" viewBox="0 0 700.000000 700.000000"
 preserveAspectRatio="xMidYMid meet">
<metadata>
Created by potrace 1.11, written by Peter Selinger 2001-2013
</metadata>
<g transform="translate(0.000000,700.000000) scale(0.100000,-0.100000)"
fill="#000000" stroke="none">
<path d="M0 3500 l0 -3500 3500 0 3500 0 0 3500 0 3500 -3500 0 -3500 0 0
-3500z m6450 695 l0 -195 -77 -1 c-43 0 -100 -1 -127 -2 l-50 -2 -1 -440 c0
-242 2 -444 6 -450 4 -5 35 -10 68 -9 34 0 62 -2 62 -5 4 -17 5 -738 1 -748
-6 -19 -638 -19 -644 -1 -3 11 -2 667 1 734 1 20 6 21 96 19 61 -2 98 2 103 9
4 6 7 210 7 453 l0 442 -207 -1 -208 0 -1 -26 c0 -15 -1 -301 -2 -637 l-2
-610 -85 -27 c-47 -14 -146 -46 -220 -69 -74 -24 -139 -44 -145 -45 -5 -1 -30
-9 -55 -17 -25 -9 -97 -31 -160 -51 -63 -19 -353 -110 -645 -201 -303 -95
-541 -164 -555 -162 -14 2 -234 66 -490 142 -570 168 -635 187 -780 230 -63
18 -160 46 -215 63 -55 16 -181 53 -280 82 -99 29 -182 54 -184 56 -2 2 -4
289 -4 638 l0 635 -381 0 c-210 0 -402 0 -428 1 l-48 0 0 195 0 195 2825 0
2825 0 0 -195z"/>
</g>
</svg>
